<svg width="455" height="568" viewBox="0 0 455 568" fill="none" xmlns="http://www.w3.org/2000/svg">
<path d="M201.051 166.415C189.643 174.52 177.047 182.613 164.109 188.013C163.878 188.111 163.76 188.035 163.756 187.788C163.342 147.04 166.716 105.897 177.437 66.4294C179.808 57.69 184.252 50.3666 190.77 44.4591C216.285 21.3307 267.925 25.7187 280.265 61.9257C280.964 63.9734 281.936 67.9145 283.183 73.7488C291.168 111.102 293.739 149.606 292.922 187.721C292.921 187.773 292.906 187.825 292.88 187.87C292.854 187.916 292.817 187.955 292.773 187.983C292.728 188.011 292.678 188.028 292.625 188.033C292.573 188.037 292.52 188.028 292.472 188.007C279.815 182.504 267.614 174.593 256.48 166.469C256.301 166.335 256.125 166.339 255.95 166.482C239.474 179.804 217.844 180.084 201.551 166.433C201.388 166.299 201.222 166.293 201.051 166.415ZM238.895 82.3054C228.729 87.4004 218.216 91.508 208.117 96.737C197.044 102.466 190.892 110.358 192.969 123.412C195.496 139.343 206.667 159.04 224.246 161.844C240.18 164.379 252.898 153.074 259.525 139.855C261.186 136.552 262.439 132.704 263.283 128.312C265.72 115.654 266.244 100.619 255.176 91.4653C250.334 87.4552 244.706 85.0357 239.279 82.3054C239.218 82.2752 239.152 82.2594 239.085 82.2594C239.018 82.2594 238.953 82.2752 238.895 82.3054Z" fill="url(#paint0_linear_288_1833)"/>
<path d="M208.119 96.7364C218.218 91.5073 228.731 87.3997 238.897 82.3048C238.955 82.2745 239.02 82.2588 239.087 82.2588C239.153 82.2588 239.22 82.2745 239.281 82.3048C244.708 85.0351 250.336 87.4546 255.178 91.4647C266.246 100.619 265.722 115.653 263.285 128.312C262.441 132.704 261.188 136.551 259.527 139.854C252.9 153.073 240.182 164.378 224.248 161.843C206.669 159.04 195.498 139.342 192.97 123.412C190.893 110.357 197.045 102.465 208.119 96.7364Z" fill="#443C2E"/>
<path d="M246.472 212.805C234.777 217.51 223.07 217.522 211.351 212.842C211.328 212.832 211.303 212.828 211.278 212.831C211.253 212.835 211.229 212.845 211.209 212.861C211.189 212.878 211.174 212.899 211.164 212.923C211.155 212.948 211.152 212.975 211.156 213L223.338 287.968C223.371 288.171 223.283 288.273 223.076 288.273L183.947 288.267C183.87 288.267 183.796 288.236 183.741 288.183C183.686 288.129 183.655 288.056 183.655 287.98C183.647 285.774 183.645 283.533 183.649 281.258C183.649 278.985 181.608 278.394 179.586 278.387C174.742 278.371 169.877 278.375 164.992 278.4C164.929 278.4 164.869 278.374 164.824 278.328C164.78 278.283 164.755 278.221 164.755 278.156C164.755 270.168 164.753 262.162 164.748 254.138C164.748 253.313 164.952 252.541 165.358 251.822C166.872 249.128 168.401 246.465 169.944 243.832C169.98 243.768 170.039 243.72 170.11 243.699C170.18 243.677 170.256 243.683 170.322 243.716C175.055 246.136 177.728 243.838 180.128 239.688C182.22 236.08 184.301 232.468 186.372 228.852C187.903 226.179 188.802 224.155 189.07 222.782C191.385 210.898 177.016 202.853 168.038 210.971C167.087 211.828 165.993 213.325 164.755 215.463C162.282 219.729 159.839 224.011 157.427 228.31C155.372 231.97 156.04 235.032 159.431 237.494C159.614 237.624 159.65 237.786 159.541 237.981L153.017 249.244C152.83 249.567 152.731 249.937 152.731 250.317L152.737 278.071C152.737 278.116 152.728 278.162 152.71 278.204C152.692 278.246 152.666 278.284 152.633 278.316C152.6 278.348 152.561 278.373 152.518 278.389C152.475 278.406 152.429 278.413 152.384 278.412C149.734 278.327 145.026 277.412 144.825 281.416C144.711 283.655 144.662 285.882 144.679 288.096C144.679 288.21 144.622 288.267 144.508 288.267L122.483 288.279C122.162 288.279 122 288.116 121.996 287.791C121.931 279.141 122.302 270.617 123.11 262.219C124.213 250.786 126.308 239.03 131.552 229.126C137.79 217.352 147.614 209.588 158.865 202.847C173.422 194.12 188.071 185.728 201.855 175.849C202.066 175.694 202.204 175.745 202.269 176.001C203.711 181.982 205.162 187.94 206.624 193.876C206.848 194.774 207.258 195.528 207.855 196.137C220.073 208.582 238.876 207.631 250.541 195.308C250.868 194.961 251.101 194.535 251.217 194.071L255.718 175.861C255.725 175.837 255.737 175.815 255.754 175.797C255.77 175.779 255.791 175.765 255.814 175.756C255.837 175.748 255.861 175.745 255.884 175.749C255.908 175.752 255.93 175.761 255.949 175.776C270.343 186.027 285.497 194.656 300.585 203.737C306.448 207.272 311.559 211.087 315.916 215.182C324.675 223.416 329.712 234.8 332.112 246.672C334.889 260.397 335.608 274.255 335.462 288.114C335.46 288.155 335.444 288.194 335.415 288.222C335.387 288.251 335.349 288.266 335.31 288.267H312.925C312.726 288.267 312.627 288.169 312.627 287.974C312.602 285.896 313.077 281.605 312.2 279.893C311.092 277.723 306.913 278.406 304.836 278.369C304.633 278.365 304.532 278.262 304.532 278.058V250.323C304.532 249.892 304.424 249.49 304.209 249.116L297.673 237.829C297.64 237.776 297.63 237.712 297.645 237.65C297.659 237.588 297.698 237.534 297.752 237.5C300.01 236.062 301.11 234.177 301.054 231.844C301.021 230.674 300.471 229.161 299.403 227.304C296.983 223.111 294.567 218.92 292.155 214.731C289.03 209.301 283.189 206.266 277.049 208.247C270.891 210.227 267.072 216.182 268.29 222.672C268.594 224.31 269.543 226.498 271.134 229.236C273.169 232.734 275.193 236.236 277.207 239.743C279.589 243.887 282.348 246.099 287.056 243.71C287.104 243.685 287.16 243.68 287.212 243.695C287.264 243.709 287.309 243.743 287.337 243.789L292.301 252.389C292.476 252.692 292.569 253.035 292.569 253.382L292.581 278.064C292.581 278.157 292.544 278.245 292.479 278.31C292.414 278.375 292.326 278.412 292.234 278.412C287.251 278.383 282.22 278.373 277.14 278.381C272.292 278.387 273.711 284.269 273.62 287.98C273.616 288.171 273.518 288.267 273.327 288.267L234.667 288.273C234.63 288.272 234.592 288.264 234.558 288.248C234.524 288.232 234.494 288.209 234.469 288.181C234.445 288.152 234.427 288.119 234.417 288.083C234.407 288.048 234.405 288.01 234.412 287.974L246.679 212.97C246.707 212.791 246.638 212.736 246.472 212.805Z" fill="url(#paint1_linear_288_1833)"/>
<path d="M91.562 278.339C96.6257 278.383 101.687 278.379 106.747 278.326C109.037 278.308 110.048 279.618 110.103 281.879C110.152 283.911 110.15 285.942 110.097 287.974C110.093 288.169 109.993 288.266 109.799 288.266L71.2789 288.26C71.2234 288.26 71.17 288.239 71.1302 288.2C71.0904 288.161 71.0673 288.109 71.0657 288.053C70.9885 285.644 70.9885 283.275 71.0657 280.947C71.1753 277.565 76.639 278.357 78.7769 278.357C78.98 278.357 79.0815 278.255 79.0815 278.052L79.0876 231.509C79.0875 230.822 79.2682 230.148 79.6114 229.553L85.8547 218.766C85.9684 218.575 85.9339 218.416 85.7512 218.29C83.4569 216.726 82.4031 214.772 82.5899 212.427C82.6833 211.204 83.4589 209.344 84.9167 206.845C86.7359 203.716 88.5469 200.586 90.3499 197.453C92.0513 194.5 93.4522 192.535 94.5527 191.56C103.598 183.57 117.662 191.7 115.481 203.53C115.185 205.126 114.306 207.186 112.844 209.709C110.753 213.317 108.668 216.927 106.589 220.539C104.42 224.312 102.288 226.438 97.8723 225.128C97.6043 225.049 97.1536 224.75 96.782 224.635C96.5871 224.574 96.4368 224.633 96.3313 224.811C94.8207 227.403 93.3264 230.002 91.8483 232.606C91.426 233.354 91.2128 234.156 91.2087 235.013C91.16 249.351 91.1661 263.682 91.227 278.003C91.227 278.223 91.3387 278.335 91.562 278.339Z" fill="url(#paint2_linear_288_1833)"/>
<path d="M364.999 278.052C365.068 263.71 365.072 249.363 365.012 235.013C365.008 234.143 364.794 233.337 364.372 232.593C362.886 229.965 361.381 227.36 359.859 224.78C359.757 224.606 359.613 224.559 359.426 224.64C355.447 226.395 352.448 225.5 350.43 221.953C346.58 215.2 343.983 210.694 342.639 208.435C336.573 198.258 344.601 186.337 356.332 188.762C360.778 189.689 363.215 192.84 365.633 197.039C367.537 200.338 369.446 203.635 371.358 206.93C372.808 209.429 373.569 211.275 373.643 212.47C373.785 214.737 372.731 216.693 370.481 218.339C370.412 218.388 370.364 218.461 370.346 218.544C370.328 218.626 370.342 218.712 370.384 218.783L376.682 229.644C376.997 230.186 377.161 230.803 377.157 231.429V277.912C377.157 278.155 377.279 278.287 377.523 278.308C379.855 278.497 383.346 277.625 384.667 279.734C385.691 281.355 385.24 285.901 385.228 287.992C385.228 288.026 385.221 288.06 385.207 288.092C385.194 288.124 385.174 288.153 385.149 288.177C385.124 288.201 385.095 288.221 385.062 288.234C385.03 288.247 384.995 288.254 384.96 288.254H346.422C346.343 288.254 346.267 288.222 346.211 288.166C346.155 288.11 346.123 288.034 346.123 287.955L346.117 281.257C346.116 280.876 346.191 280.499 346.336 280.146C346.482 279.794 346.695 279.474 346.965 279.204C347.234 278.935 347.554 278.721 347.906 278.576C348.258 278.43 348.636 278.356 349.017 278.356L364.683 278.363C364.894 278.363 364.999 278.259 364.999 278.052Z" fill="url(#paint3_linear_288_1833)"/>
<path d="M62.0053 318.263L34.2607 318.269C34.1863 318.269 34.1151 318.239 34.0625 318.187C34.01 318.134 33.9805 318.063 33.9805 317.989L33.9866 299.675C33.9866 299.601 34.0161 299.529 34.0686 299.477C34.1212 299.424 34.1924 299.395 34.2667 299.395H417.648C417.723 299.395 417.794 299.424 417.847 299.477C417.899 299.529 417.929 299.601 417.929 299.675L417.947 317.989C417.947 318.063 417.917 318.134 417.865 318.187C417.812 318.239 417.741 318.269 417.667 318.269L389.94 318.263C389.866 318.263 389.795 318.292 389.742 318.345C389.69 318.398 389.66 318.469 389.66 318.543L389.666 543.635C389.666 543.709 389.637 543.78 389.584 543.833C389.532 543.885 389.46 543.915 389.386 543.915H62.5657C62.4914 543.915 62.4201 543.885 62.3676 543.833C62.315 543.78 62.2855 543.709 62.2855 543.635V318.543C62.2855 318.469 62.256 318.398 62.2034 318.345C62.1509 318.292 62.0796 318.263 62.0053 318.263ZM294.817 425.787C294.817 407.517 287.563 389.996 274.652 377.077C261.741 364.159 244.229 356.901 225.97 356.901C207.71 356.901 190.199 364.159 177.288 377.077C164.376 389.996 157.123 407.517 157.123 425.787C157.123 444.056 164.376 461.577 177.288 474.496C190.199 487.414 207.71 494.672 225.97 494.672C244.229 494.672 261.741 487.414 274.652 474.496C287.563 461.577 294.817 444.056 294.817 425.787Z" fill="url(#paint4_linear_288_1833)"/>
<path d="M225.972 494.672C263.995 494.672 294.819 463.831 294.819 425.787C294.819 387.742 263.995 356.901 225.972 356.901C187.949 356.901 157.125 387.742 157.125 425.787C157.125 463.831 187.949 494.672 225.972 494.672Z" fill="#443C2E"/>
<defs>
<linearGradient id="paint0_linear_288_1833" x1="228.395" y1="30.1836" x2="228.395" y2="188.054" gradientUnits="userSpaceOnUse">
<stop stop-color="#FFBC5E"/>
<stop offset="1" stop-color="#FFBC5E"/>
</linearGradient>
<linearGradient id="paint1_linear_288_1833" x1="228.734" y1="175.747" x2="228.734" y2="288.279" gradientUnits="userSpaceOnUse">
<stop stop-color="#FFDB6E"/>
<stop offset="1" stop-color="#FFBC5E"/>
</linearGradient>
<linearGradient id="paint2_linear_288_1833" x1="93.3579" y1="188.367" x2="93.3579" y2="288.266" gradientUnits="userSpaceOnUse">
<stop stop-color="#FFDB6E"/>
<stop offset="1" stop-color="#FFBC5E"/>
</linearGradient>
<linearGradient id="paint3_linear_288_1833" x1="362.95" y1="188.444" x2="362.95" y2="288.254" gradientUnits="userSpaceOnUse">
<stop stop-color="#FFDB6E"/>
<stop offset="1" stop-color="#FFBC5E"/>
</linearGradient>
<linearGradient id="paint4_linear_288_1833" x1="34" y1="299" x2="386" y2="544" gradientUnits="userSpaceOnUse">
<stop offset="0.302083" stop-color="#FFDB6E"/>
<stop offset="0.83573" stop-color="#FFBC5E"/>
</linearGradient>
</defs>
</svg>
