<svg width="424" height="424" viewBox="0 0 424 424" fill="none" xmlns="http://www.w3.org/2000/svg">
<path d="M47 80.476L128.5 78L209 83.5L287.5 77L368.511 78L376 332.038L47 336V80.476Z" fill="#443C2E"/>
<path d="M286.731 231.996L307.385 243.534L287.066 255.652L286.731 231.996Z" fill="#222224"/>
<rect x="378.887" y="59" width="39.2971" height="192.969" rx="19.6486" transform="rotate(30.7843 378.887 59)" fill="#222224"/>
<path d="M408.694 101.018C412.185 101.852 413.93 103.866 413.93 107.06C413.916 192.043 413.909 276.843 413.909 361.46C413.909 362.295 413.745 363.122 413.427 363.894C413.108 364.665 412.641 365.366 412.052 365.957C411.464 366.547 410.765 367.016 409.996 367.336C409.227 367.655 408.403 367.82 407.57 367.82H16.4303C14.7435 367.82 13.1258 367.15 11.9331 365.957C10.7404 364.764 10.0703 363.146 10.0703 361.46V107.102C10.0703 105.427 10.7359 103.82 11.9207 102.635C13.1055 101.45 14.7124 100.784 16.3879 100.784H37.2275C38.0755 100.784 38.4924 100.36 38.4783 99.5125V75.2173C38.4783 73.553 39.1372 71.9569 40.3101 70.78C41.4829 69.6032 43.0736 68.9421 44.7323 68.9421C90.072 68.9279 135.758 68.9209 181.79 68.9209C192.178 68.9209 200.913 73.3446 207.993 82.1921C208.502 82.8139 209.004 82.8139 209.499 82.1921C218.784 70.8289 228.282 68.9421 243.61 68.9421C283.084 68.9421 322.551 68.935 362.011 68.9209C362.343 68.9208 362.67 68.8375 362.962 68.6783C363.254 68.5192 363.503 68.2892 363.686 68.0093C372.548 54.2717 387.112 53.1057 400.49 61.6281C412.107 69.0481 417.301 79.8389 411.513 93.5341C410.75 95.3149 409.097 97.5621 408.058 99.6821C407.719 100.389 407.931 100.834 408.694 101.018ZM290.695 221.497L314.311 235.129C314.506 235.236 314.735 235.263 314.949 235.204C315.163 235.144 315.345 235.003 315.456 234.811L398.9 90.2905C399.747 88.8245 400.34 87.2299 400.643 85.5978C400.947 83.9657 400.955 82.3281 400.667 80.7786C400.38 79.2292 399.803 77.7982 398.968 76.5675C398.134 75.3368 397.059 74.3305 395.804 73.6061L389.826 70.1505C387.293 68.6921 384.187 68.4692 381.189 69.5306C378.192 70.592 375.549 72.851 373.841 75.8109L290.398 220.331C290.34 220.427 290.303 220.534 290.286 220.644C290.27 220.755 290.276 220.868 290.304 220.976C290.331 221.084 290.38 221.186 290.447 221.276C290.514 221.365 290.598 221.44 290.695 221.497ZM181.409 327.603C188.914 327.624 195.698 330.211 201.803 334.408C201.873 334.454 201.953 334.48 202.037 334.484C202.12 334.487 202.202 334.469 202.276 334.43C202.349 334.391 202.411 334.333 202.455 334.262C202.498 334.191 202.522 334.11 202.524 334.027C202.524 258.159 202.517 182.327 202.503 106.53C202.503 87.4709 193.09 81.5985 174.497 81.5985C133.666 81.6126 92.8704 81.6126 52.1099 81.5985C51.3891 81.5985 51.0287 81.9518 51.0287 82.6585V326.522C51.0287 326.809 51.1426 327.084 51.3454 327.287C51.5482 327.489 51.8232 327.603 52.1099 327.603C95.2024 327.533 138.302 327.533 181.409 327.603ZM365.361 173.564L323.025 246.916C322.33 248.111 321.336 249.104 320.141 249.799L284.547 270.363C283.586 270.918 282.497 271.21 281.388 271.21C280.279 271.21 279.19 270.918 278.23 270.364C277.269 269.809 276.472 269.012 275.917 268.052C275.363 267.092 275.071 266.002 275.07 264.894V223.617C275.07 222.326 275.414 221.053 276.067 219.928L355.567 82.2557C355.604 82.1878 355.624 82.1115 355.624 82.0341C355.625 81.9568 355.606 81.8811 355.57 81.8147C355.533 81.7483 355.481 81.6934 355.417 81.6554C355.353 81.6175 355.28 81.5979 355.206 81.5985C317.244 81.6126 279.268 81.6126 241.277 81.5985C222.07 81.5773 215.223 89.6333 215.202 109.074C215.159 183.839 215.159 258.64 215.202 333.476C215.202 334.408 215.59 334.613 216.367 334.09C223.024 329.723 229.512 327.54 235.829 327.54C279.162 327.554 322.396 327.568 365.531 327.582C365.681 327.582 365.83 327.552 365.969 327.495C366.108 327.437 366.234 327.353 366.34 327.247C366.446 327.14 366.531 327.014 366.588 326.875C366.646 326.736 366.676 326.588 366.676 326.437V173.924C366.676 172.172 366.237 172.052 365.361 173.564ZM42.8455 339.92C39.6796 338.62 38.1038 336.26 38.1179 332.84C38.3582 259.841 38.4783 186.856 38.4783 113.886C38.4783 113.603 38.3299 113.455 38.0331 113.441H23.2779C23.1317 113.441 22.9915 113.499 22.8882 113.602C22.7848 113.706 22.7267 113.846 22.7267 113.992V354.04C22.7267 354.775 23.1012 355.142 23.8503 355.142L197.182 355.121C202.086 355.121 202.771 353.425 199.238 350.033L194.32 345.284C190.843 341.934 186.687 340.26 181.854 340.26H44.5203C43.9467 340.26 43.3772 340.144 42.8455 339.92ZM378.547 336.719C377.424 339.136 375.071 340.217 372.336 340.217C326.558 340.316 281.105 340.295 235.977 340.154C231.087 340.14 226.897 341.836 223.406 345.242L218.424 350.075C214.961 353.439 215.647 355.121 220.48 355.121L400.15 355.142C400.885 355.142 401.253 354.775 401.253 354.04L401.231 114.48C401.231 113.038 400.843 112.918 400.065 114.119C393.395 124.394 387.197 134.959 381.473 145.813C380.017 148.541 379.289 151.502 379.289 154.696C379.275 214.424 379.275 274.031 379.289 333.518C379.289 334.565 379.036 335.658 378.547 336.719ZM303.648 244.754C303.758 244.691 303.85 244.6 303.913 244.49C303.977 244.38 304.01 244.255 304.01 244.128C304.01 244.001 303.977 243.877 303.913 243.767C303.85 243.657 303.758 243.566 303.648 243.503L288.808 234.938C288.697 234.874 288.572 234.841 288.445 234.841C288.317 234.842 288.192 234.876 288.082 234.941C287.972 235.006 287.881 235.098 287.819 235.21C287.756 235.321 287.725 235.447 287.727 235.574L287.748 252.661C287.746 252.789 287.778 252.915 287.84 253.026C287.902 253.137 287.993 253.23 288.103 253.294C288.213 253.359 288.338 253.393 288.466 253.394C288.593 253.394 288.719 253.361 288.829 253.297L303.648 244.754Z" fill="url(#paint0_linear_288_1696)"/>
<path d="M171.975 113.25H80.3059C76.8988 113.25 74.1367 116.012 74.1367 119.419V119.631C74.1367 123.038 76.8988 125.8 80.3059 125.8H171.975C175.382 125.8 178.144 123.038 178.144 119.631V119.419C178.144 116.012 175.382 113.25 171.975 113.25Z" fill="url(#paint1_linear_288_1696)"/>
<path d="M314.101 113.25H245.074C241.678 113.25 238.926 116.003 238.926 119.398V119.652C238.926 123.048 241.678 125.8 245.074 125.8H314.101C317.496 125.8 320.249 123.048 320.249 119.652V119.398C320.249 116.003 317.496 113.25 314.101 113.25Z" fill="url(#paint2_linear_288_1696)"/>
<path d="M171.921 148.48L80.3796 148.32C76.949 148.314 74.1631 151.091 74.1571 154.521L74.1567 154.776C74.1507 158.206 76.9269 160.992 80.3574 160.998L171.899 161.158C175.329 161.164 178.115 158.388 178.121 154.957L178.122 154.703C178.128 151.272 175.352 148.486 171.921 148.48Z" fill="url(#paint3_linear_288_1696)"/>
<path d="M293.78 148.357L245.062 148.442C241.667 148.448 238.919 151.206 238.925 154.601L238.925 154.94C238.931 158.336 241.689 161.084 245.084 161.078L293.802 160.993C297.197 160.987 299.945 158.229 299.939 154.834L299.938 154.495C299.932 151.099 297.175 148.351 293.78 148.357Z" fill="url(#paint4_linear_288_1696)"/>
<path d="M171.954 183.592H80.3271C76.9083 183.592 74.1367 186.363 74.1367 189.782V189.994C74.1367 193.413 76.9083 196.185 80.3271 196.185H171.954C175.372 196.185 178.144 193.413 178.144 189.994V189.782C178.144 186.363 175.372 183.592 171.954 183.592Z" fill="url(#paint5_linear_288_1696)"/>
<path d="M273.596 183.617L244.976 183.567C241.639 183.561 238.929 186.262 238.923 189.599L238.922 190.107C238.916 193.444 241.617 196.154 244.954 196.16L273.574 196.21C276.91 196.216 279.62 193.515 279.626 190.178L279.627 189.67C279.633 186.333 276.932 183.623 273.596 183.617Z" fill="url(#paint6_linear_288_1696)"/>
<path d="M171.954 218.806H80.3271C76.9083 218.806 74.1367 221.577 74.1367 224.996V225.25C74.1367 228.669 76.9083 231.441 80.3271 231.441H171.954C175.372 231.441 178.144 228.669 178.144 225.25V224.996C178.144 221.577 175.372 218.806 171.954 218.806Z" fill="url(#paint7_linear_288_1696)"/>
<path d="M257.995 218.859L244.893 218.837C241.615 218.831 238.952 221.484 238.947 224.762L238.945 225.441C238.94 228.719 241.593 231.381 244.871 231.387L257.973 231.41C261.251 231.416 263.913 228.763 263.919 225.484L263.92 224.806C263.926 221.527 261.273 218.865 257.995 218.859Z" fill="url(#paint8_linear_288_1696)"/>
<path d="M171.932 253.934H80.3483C76.9177 253.934 74.1367 256.715 74.1367 260.145V260.4C74.1367 263.83 76.9177 266.611 80.3483 266.611H171.932C175.363 266.611 178.144 263.83 178.144 260.4V260.145C178.144 256.715 175.363 253.934 171.932 253.934Z" fill="url(#paint9_linear_288_1696)"/>
<path d="M257.983 253.997H244.881C241.603 253.997 238.945 256.655 238.945 259.933V260.611C238.945 263.89 241.603 266.547 244.881 266.547H257.983C261.261 266.547 263.919 263.89 263.919 260.611V259.933C263.919 256.655 261.261 253.997 257.983 253.997Z" fill="url(#paint10_linear_288_1696)"/>
<path d="M171.975 289.21H80.3059C76.8988 289.21 74.1367 291.972 74.1367 295.379V295.591C74.1367 298.998 76.8988 301.76 80.3059 301.76H171.975C175.382 301.76 178.144 298.998 178.144 295.591V295.379C178.144 291.972 175.382 289.21 171.975 289.21Z" fill="url(#paint11_linear_288_1696)"/>
<path d="M336.74 289.21H245.072C241.664 289.21 238.902 291.972 238.902 295.379V295.591C238.902 298.998 241.664 301.76 245.072 301.76H336.74C340.147 301.76 342.91 298.998 342.91 295.591V295.379C342.91 291.972 340.147 289.21 336.74 289.21Z" fill="url(#paint12_linear_288_1696)"/>
<defs>
<linearGradient id="paint0_linear_288_1696" x1="38" y1="70" x2="414" y2="368" gradientUnits="userSpaceOnUse">
<stop stop-color="#FFDB6E"/>
<stop offset="1" stop-color="#FFBC5E"/>
</linearGradient>
<linearGradient id="paint1_linear_288_1696" x1="126.14" y1="113.25" x2="126.14" y2="125.8" gradientUnits="userSpaceOnUse">
<stop stop-color="#FFDB6E"/>
<stop offset="1" stop-color="#FFBC5E"/>
</linearGradient>
<linearGradient id="paint2_linear_288_1696" x1="279.587" y1="113.25" x2="279.587" y2="125.8" gradientUnits="userSpaceOnUse">
<stop stop-color="#FFDB6E"/>
<stop offset="1" stop-color="#FFBC5E"/>
</linearGradient>
<linearGradient id="paint3_linear_288_1696" x1="126.15" y1="148.4" x2="126.128" y2="161.078" gradientUnits="userSpaceOnUse">
<stop stop-color="#FFDB6E"/>
<stop offset="1" stop-color="#FFBC5E"/>
</linearGradient>
<linearGradient id="paint4_linear_288_1696" x1="269.421" y1="148.4" x2="269.443" y2="161.035" gradientUnits="userSpaceOnUse">
<stop stop-color="#FFDB6E"/>
<stop offset="1" stop-color="#FFBC5E"/>
</linearGradient>
<linearGradient id="paint5_linear_288_1696" x1="126.14" y1="183.592" x2="126.14" y2="196.185" gradientUnits="userSpaceOnUse">
<stop stop-color="#FFDB6E"/>
<stop offset="1" stop-color="#FFBC5E"/>
</linearGradient>
<linearGradient id="paint6_linear_288_1696" x1="259.286" y1="183.592" x2="259.264" y2="196.185" gradientUnits="userSpaceOnUse">
<stop stop-color="#FFDB6E"/>
<stop offset="1" stop-color="#FFBC5E"/>
</linearGradient>
<linearGradient id="paint7_linear_288_1696" x1="126.14" y1="218.806" x2="126.14" y2="231.441" gradientUnits="userSpaceOnUse">
<stop stop-color="#FFDB6E"/>
<stop offset="1" stop-color="#FFBC5E"/>
</linearGradient>
<linearGradient id="paint8_linear_288_1696" x1="251.444" y1="218.848" x2="251.422" y2="231.398" gradientUnits="userSpaceOnUse">
<stop stop-color="#FFDB6E"/>
<stop offset="1" stop-color="#FFBC5E"/>
</linearGradient>
<linearGradient id="paint9_linear_288_1696" x1="126.14" y1="253.934" x2="126.14" y2="266.611" gradientUnits="userSpaceOnUse">
<stop stop-color="#FFDB6E"/>
<stop offset="1" stop-color="#FFBC5E"/>
</linearGradient>
<linearGradient id="paint10_linear_288_1696" x1="251.432" y1="253.997" x2="251.432" y2="266.547" gradientUnits="userSpaceOnUse">
<stop stop-color="#FFDB6E"/>
<stop offset="1" stop-color="#FFBC5E"/>
</linearGradient>
<linearGradient id="paint11_linear_288_1696" x1="126.14" y1="289.21" x2="126.14" y2="301.76" gradientUnits="userSpaceOnUse">
<stop stop-color="#FFDB6E"/>
<stop offset="1" stop-color="#FFBC5E"/>
</linearGradient>
<linearGradient id="paint12_linear_288_1696" x1="290.906" y1="289.21" x2="290.906" y2="301.76" gradientUnits="userSpaceOnUse">
<stop stop-color="#FFDB6E"/>
<stop offset="1" stop-color="#FFBC5E"/>
</linearGradient>
</defs>
</svg>
