<svg width="481" height="481" viewBox="0 0 481 481" fill="none" xmlns="http://www.w3.org/2000/svg">
<path d="M224.275 416.413C224.425 440.012 256.986 438.884 256.902 416.882C256.883 410.532 256.858 404.197 256.827 397.877C256.827 397.782 256.863 397.692 256.928 397.625C256.994 397.558 257.082 397.52 257.174 397.52H269.866C270.248 397.52 270.439 397.711 270.439 398.093V451.125C270.439 451.489 270.261 451.67 269.904 451.67H211.103C210.74 451.67 210.559 451.489 210.559 451.125V397.821C210.559 397.739 210.59 397.66 210.647 397.602C210.703 397.543 210.779 397.511 210.859 397.511L223.579 397.53C223.924 397.53 224.099 397.705 224.106 398.056C224.174 404.2 224.231 410.319 224.275 416.413Z" fill="url(#paint0_linear_304_290)"/>
<path d="M440.128 78.8293C440.128 73.4275 437.982 68.247 434.162 64.4274C430.343 60.6078 425.162 58.4619 419.76 58.4619H61.2463C55.8445 58.4619 50.664 60.6078 46.8444 64.4274C43.0247 68.247 40.8789 73.4275 40.8789 78.8293V367.749C40.8789 373.15 43.0247 378.331 46.8444 382.151C50.664 385.97 55.8445 388.116 61.2463 388.116H419.76C425.162 388.116 430.343 385.97 434.162 382.151C437.982 378.331 440.128 373.15 440.128 367.749V78.8293Z" stroke="#FFDB6E" stroke-width="4.11111"/>
<path d="M256.906 416.882C256.99 438.884 224.429 440.012 224.279 416.413C224.235 410.319 224.178 404.2 224.109 398.056C224.103 397.705 223.928 397.53 223.583 397.53L210.863 397.511C210.783 397.511 210.707 397.543 210.651 397.602C210.594 397.66 210.563 397.739 210.562 397.821V451.125C210.562 451.489 210.744 451.67 211.107 451.67H269.908C270.265 451.67 270.443 451.489 270.443 451.125V398.093C270.443 397.711 270.252 397.52 269.87 397.52H257.178C257.086 397.52 256.998 397.558 256.932 397.625C256.867 397.692 256.831 397.782 256.831 397.877C256.862 404.197 256.887 410.532 256.906 416.882Z" stroke="url(#paint1_linear_304_290)" stroke-width="4.11111"/>
<path d="M339.086 466.297C339.086 465.61 338.951 464.93 338.688 464.295C338.425 463.66 338.04 463.083 337.554 462.597C337.068 462.111 336.491 461.726 335.856 461.463C335.221 461.2 334.541 461.064 333.854 461.064H147.147C145.759 461.064 144.428 461.616 143.447 462.597C142.465 463.578 141.914 464.909 141.914 466.297V466.372C141.914 467.76 142.465 469.091 143.447 470.072C144.428 471.054 145.759 471.605 147.147 471.605H333.854C334.541 471.605 335.221 471.47 335.856 471.207C336.491 470.944 337.068 470.558 337.554 470.072C338.04 469.587 338.425 469.01 338.688 468.375C338.951 467.74 339.086 467.06 339.086 466.372V466.297Z" stroke="url(#paint2_linear_304_290)" stroke-width="4.11111"/>
<path d="M429.917 78.7724C429.917 77.4413 429.655 76.1231 429.146 74.8933C428.636 73.6635 427.889 72.546 426.948 71.6047C426.007 70.6634 424.889 69.9168 423.66 69.4074C422.43 68.8979 421.112 68.6357 419.78 68.6357H61.2851C58.5967 68.6357 56.0184 69.7037 54.1174 71.6047C52.2164 73.5057 51.1484 76.084 51.1484 78.7724V367.767C51.1484 370.455 52.2164 373.034 54.1174 374.935C56.0184 376.836 58.5967 377.904 61.2851 377.904H419.78C421.112 377.904 422.43 377.642 423.66 377.132C424.889 376.623 426.007 375.876 426.948 374.935C427.889 373.993 428.636 372.876 429.146 371.646C429.655 370.416 429.917 369.098 429.917 367.767V78.7724Z" stroke="#FFDB6E" stroke-width="4.11111"/>
<path d="M420.541 78.8294C420.541 78.6151 420.456 78.4096 420.304 78.2581C420.153 78.1066 419.947 78.0215 419.733 78.0215H61.2376C61.1315 78.0215 61.0265 78.0424 60.9284 78.083C60.8304 78.1236 60.7414 78.1831 60.6663 78.2581C60.5913 78.3331 60.5318 78.4222 60.4912 78.5202C60.4506 78.6183 60.4297 78.7233 60.4297 78.8294V367.692C60.4297 367.799 60.4506 367.904 60.4912 368.002C60.5318 368.1 60.5913 368.189 60.6663 368.264C60.7414 368.339 60.8304 368.398 60.9284 368.439C61.0265 368.479 61.1315 368.5 61.2376 368.5H419.733C419.947 368.5 420.153 368.415 420.304 368.264C420.456 368.112 420.541 367.907 420.541 367.692V78.8294Z" stroke="#222224" stroke-width="4.11111"/>
<path d="M101.471 106.205C98.0876 106.205 94.8426 107.549 92.45 109.942C90.0575 112.334 88.7134 115.579 88.7134 118.963L88.6758 327.568C88.6758 330.952 90.0199 334.197 92.4124 336.59C94.805 338.982 98.05 340.326 101.434 340.326H379.587C382.97 340.326 386.215 338.982 388.608 336.59C391 334.197 392.345 330.952 392.345 327.568L392.354 118.963C392.354 115.579 391.01 112.334 388.617 109.942C386.225 107.549 382.98 106.205 379.596 106.205H101.471Z" stroke="#7D4853" stroke-width="4.11111"/>
<path d="M98.0469 279.637C98.0469 279.724 98.0667 279.808 98.1019 279.87C98.1371 279.931 98.1849 279.966 98.2348 279.966H382.626C382.716 279.966 382.802 279.93 382.865 279.867C382.929 279.803 382.964 279.717 382.964 279.628V119.517C382.964 116.899 381.658 115.59 379.047 115.59H101.964C99.3527 115.59 98.0469 116.899 98.0469 119.517V279.637Z" stroke="#777A7E" stroke-width="4.11111"/>
<path d="M382.962 327.502C382.962 327.496 382.962 327.493 382.962 327.493V289.765C382.962 289.652 382.917 289.545 382.838 289.466C382.759 289.386 382.651 289.342 382.539 289.342H98.3546C98.2724 289.342 98.1935 289.374 98.1354 289.433C98.0772 289.491 98.0446 289.57 98.0446 289.652L98.0352 327.493C98.0339 327.943 98.1217 328.389 98.2935 328.805C98.4653 329.22 98.7176 329.599 99.0362 329.917C99.3547 330.236 99.7331 330.488 100.15 330.661C100.566 330.833 101.013 330.922 101.464 330.922C193.982 330.922 286.568 330.922 379.223 330.922C381.412 330.922 382.793 329.804 382.962 327.502Z" stroke="#7E333F" stroke-width="4.11111"/>
<path d="M124.005 303.461C124.006 302.874 123.892 302.292 123.668 301.749C123.444 301.206 123.116 300.712 122.701 300.297C122.287 299.881 121.794 299.55 121.252 299.325C120.71 299.099 120.129 298.982 119.541 298.981L119.128 298.98C118.541 298.979 117.959 299.094 117.416 299.318C116.873 299.542 116.38 299.87 115.964 300.285C115.548 300.699 115.218 301.192 114.992 301.734C114.766 302.276 114.65 302.857 114.648 303.444L114.625 316.897C114.624 317.485 114.739 318.066 114.962 318.609C115.186 319.152 115.515 319.646 115.929 320.062C116.344 320.478 116.836 320.808 117.378 321.034C117.92 321.259 118.502 321.376 119.089 321.377L119.502 321.378C120.09 321.379 120.671 321.264 121.214 321.04C121.757 320.817 122.251 320.488 122.667 320.074C123.083 319.659 123.413 319.167 123.639 318.624C123.864 318.082 123.981 317.501 123.982 316.914L124.005 303.461Z" stroke="#7E333F" stroke-width="4.11111"/>
<path d="M140.893 303.434C140.893 302.251 140.423 301.116 139.586 300.279C138.749 299.442 137.614 298.972 136.43 298.972H136.017C134.834 298.972 133.699 299.442 132.862 300.279C132.025 301.116 131.555 302.251 131.555 303.434V316.925C131.555 318.108 132.025 319.243 132.862 320.08C133.699 320.917 134.834 321.387 136.017 321.387H136.43C137.614 321.387 138.749 320.917 139.586 320.08C140.423 319.243 140.893 318.108 140.893 316.925V303.434Z" stroke="#7E333F" stroke-width="4.11111"/>
<path d="M343.91 304.975C343.356 301.95 343.356 299.103 339.363 298.972C335.643 298.859 334.469 301.734 334.346 304.909C334.339 305.061 334.275 305.205 334.166 305.31C334.058 305.414 333.914 305.473 333.764 305.473C276.608 305.46 219.451 305.448 162.295 305.435C155.24 305.435 155.258 314.886 162.304 314.886C219.505 314.868 276.717 314.855 333.942 314.849C334.312 314.849 334.481 315.037 334.45 315.412C334.121 319.565 337.728 323.21 341.514 320.655C342.942 319.69 343.788 317.968 344.051 315.488C344.095 315.055 344.336 314.839 344.774 314.839C351.238 314.864 357.895 314.896 364.747 314.933C367.847 314.946 369.598 313.624 369.999 310.969C370.666 306.563 367.096 305.464 363.357 305.464C357.075 305.457 350.793 305.46 344.511 305.473C344.173 305.473 343.973 305.307 343.91 304.975Z" stroke="#7E333F" stroke-width="4.11111"/>
<path d="M440.124 367.749C440.124 373.15 437.978 378.331 434.158 382.151C430.339 385.97 425.158 388.116 419.756 388.116H61.2423C55.8406 388.116 50.6601 385.97 46.8405 382.151C43.0208 378.331 40.875 373.15 40.875 367.749V78.8293C40.875 73.4275 43.0208 68.247 46.8405 64.4274C50.6601 60.6078 55.8406 58.4619 61.2423 58.4619H419.756C425.158 58.4619 430.339 60.6078 434.158 64.4274C437.978 68.247 440.124 73.4275 440.124 78.8293V367.749ZM429.912 78.7729C429.912 77.4417 429.65 76.1236 429.14 74.8937C428.631 73.6639 427.884 72.5464 426.943 71.6052C426.002 70.6639 424.884 69.9172 423.654 69.4078C422.425 68.8984 421.106 68.6362 419.775 68.6362H61.2799C58.5915 68.6362 56.0132 69.7042 54.1122 71.6052C52.2112 73.5062 51.1432 76.0845 51.1432 78.7729V367.767C51.1432 370.456 52.2112 373.034 54.1122 374.935C56.0132 376.836 58.5915 377.904 61.2799 377.904H419.775C421.106 377.904 422.425 377.642 423.654 377.133C424.884 376.623 426.002 375.876 426.943 374.935C427.884 373.994 428.631 372.876 429.14 371.647C429.65 370.417 429.912 369.099 429.912 367.767V78.7729Z" fill="url(#paint3_linear_304_290)"/>
<path d="M89.9252 96H392.61C396.292 96 399.824 97.4628 402.428 100.067C405.031 102.67 406.494 106.202 406.494 109.884L406.484 336.911C406.484 340.593 405.021 344.124 402.417 346.728C399.814 349.332 396.282 350.795 392.6 350.795H89.8843C86.202 350.795 82.6704 349.332 80.0666 346.728C77.4628 344.124 76 340.593 76 336.911L76.0409 109.884C76.0409 106.202 77.5037 102.67 80.1075 100.067C82.7113 97.4628 86.2429 96 89.9252 96ZM86.1934 284.747C86.1934 284.842 86.215 284.933 86.2533 285C86.2917 285.067 86.3437 285.105 86.3979 285.105H395.902C396 285.105 396.093 285.066 396.162 284.997C396.231 284.928 396.27 284.835 396.27 284.737V110.488C396.27 107.638 394.849 106.214 392.007 106.214H90.4569C87.6146 106.214 86.1934 107.638 86.1934 110.488V284.747ZM396.27 336.839C396.27 336.832 396.27 336.829 396.27 336.829V295.769C396.27 295.647 396.222 295.53 396.135 295.443C396.049 295.357 395.932 295.309 395.81 295.309H86.5308C86.4413 295.309 86.3555 295.344 86.2923 295.408C86.229 295.471 86.1934 295.557 86.1934 295.646L86.1832 336.829C86.1819 337.318 86.2774 337.803 86.4643 338.256C86.6513 338.709 86.9259 339.12 87.2726 339.467C87.6193 339.814 88.0311 340.089 88.4845 340.276C88.938 340.464 89.4241 340.561 89.915 340.561C190.602 340.561 291.364 340.561 392.201 340.561C394.583 340.561 396.086 339.344 396.27 336.839Z" fill="#443C2E"/>
<path d="M86.1914 284.748V110.489C86.1914 107.639 87.6126 106.215 90.4549 106.215H392.005C394.847 106.215 396.268 107.639 396.268 110.489V284.738C396.268 284.836 396.229 284.929 396.16 284.998C396.091 285.067 395.998 285.106 395.9 285.106H86.3959C86.3417 285.106 86.2896 285.068 86.2513 285.001C86.2129 284.934 86.1914 284.843 86.1914 284.748ZM307.523 195.87C307.523 178.288 300.538 161.426 288.106 148.994C275.674 136.561 258.812 129.577 241.23 129.577C223.648 129.577 206.786 136.561 194.353 148.994C181.921 161.426 174.937 178.288 174.937 195.87C174.937 204.576 176.651 213.196 179.983 221.239C183.314 229.282 188.198 236.59 194.353 242.746C206.786 255.179 223.648 262.163 241.23 262.163C249.935 262.163 258.556 260.448 266.599 257.117C274.642 253.785 281.95 248.902 288.106 242.746C294.262 236.59 299.145 229.282 302.477 221.239C305.808 213.196 307.523 204.576 307.523 195.87Z" fill="#443C2E"/>
<rect x="40" y="59" width="400" height="331" rx="37" fill="#443C2E" stroke="url(#paint4_linear_304_290)" stroke-width="24"/>
<path d="M323.848 195.582C323.848 206.545 321.689 217.401 317.493 227.529C313.298 237.657 307.149 246.86 299.397 254.612C291.645 262.364 282.442 268.513 272.314 272.708C262.186 276.904 251.33 279.063 240.367 279.063C218.227 279.063 196.993 270.268 181.338 254.612C165.682 238.956 156.887 217.723 156.887 195.582C156.887 173.442 165.682 152.208 181.338 136.552C196.993 120.897 218.227 112.102 240.367 112.102C262.508 112.102 283.741 120.897 299.397 136.552C315.053 152.208 323.848 173.442 323.848 195.582ZM310.935 195.582C310.935 176.867 303.5 158.918 290.266 145.684C277.032 132.45 259.083 125.015 240.367 125.015C221.652 125.015 203.703 132.45 190.469 145.684C177.235 158.918 169.8 176.867 169.8 195.582C169.8 204.849 171.625 214.026 175.172 222.587C178.718 231.149 183.916 238.928 190.469 245.481C203.703 258.715 221.652 266.149 240.367 266.149C249.634 266.149 258.811 264.324 267.372 260.778C275.934 257.231 283.713 252.034 290.266 245.481C296.819 238.928 302.017 231.149 305.563 222.587C309.109 214.026 310.935 204.849 310.935 195.582Z" fill="#222224"/>
<path d="M310.935 195.582C310.935 204.849 309.11 214.025 305.564 222.587C302.017 231.148 296.819 238.928 290.266 245.48C283.714 252.033 275.934 257.231 267.373 260.777C258.811 264.324 249.635 266.149 240.368 266.149C221.652 266.149 203.703 258.714 190.469 245.48C177.236 232.246 169.801 214.297 169.801 195.582C169.801 176.866 177.236 158.917 190.469 145.683C203.703 132.449 221.652 125.015 240.368 125.015C259.084 125.015 277.033 132.449 290.266 145.683C303.5 158.917 310.935 176.866 310.935 195.582ZM238.488 229.739C248.522 223.31 258.5 216.795 268.422 210.195C272.027 207.809 274.405 205.843 275.555 204.298C280.357 197.874 278.452 187.535 271.963 183.273C260.624 175.815 249.264 168.377 237.883 160.961C232.54 157.472 227.879 155.528 222.124 157.717C215.283 160.326 211.88 165.553 211.914 173.398C211.975 187.381 212.026 201.358 212.069 215.332C212.086 219.744 212.434 222.859 213.112 224.679C215.532 231.155 222.961 235.404 229.72 234.065C231.677 233.679 234.6 232.237 238.488 229.739Z" fill="url(#paint5_linear_304_290)"/>
<path d="M228.428 170.103L264.349 193.69C264.662 193.896 264.919 194.177 265.097 194.508C265.275 194.838 265.369 195.207 265.369 195.582C265.369 195.958 265.275 196.327 265.097 196.657C264.919 196.988 264.662 197.269 264.349 197.475L228.428 221.062C228.085 221.285 227.689 221.411 227.281 221.427C226.873 221.443 226.468 221.348 226.109 221.153C225.75 220.958 225.45 220.669 225.242 220.318C225.034 219.966 224.925 219.565 224.926 219.156V172.009C224.925 171.6 225.034 171.199 225.242 170.847C225.45 170.496 225.75 170.207 226.109 170.012C226.468 169.817 226.873 169.722 227.281 169.738C227.689 169.754 228.085 169.88 228.428 170.103Z" fill="url(#paint6_linear_304_290)"/>
<path d="M396.267 336.839C396.083 339.344 394.58 340.56 392.197 340.56C291.36 340.56 190.599 340.56 89.9115 340.56C89.4206 340.56 88.9345 340.464 88.481 340.276C88.0276 340.089 87.6158 339.814 87.2691 339.467C86.9224 339.12 86.6478 338.709 86.4608 338.256C86.2739 337.803 86.1784 337.318 86.1797 336.829L86.1899 295.646C86.1899 295.557 86.2255 295.471 86.2888 295.407C86.352 295.344 86.4378 295.309 86.5273 295.309H395.807C395.929 295.309 396.046 295.357 396.132 295.443C396.218 295.53 396.267 295.647 396.267 295.769V336.829C396.267 336.829 396.267 336.832 396.267 336.839ZM114.442 310.674C114.443 310.035 114.318 309.402 114.074 308.811C113.831 308.22 113.473 307.683 113.022 307.23C112.571 306.778 112.035 306.418 111.445 306.173C110.855 305.927 110.223 305.8 109.583 305.799L109.134 305.798C108.495 305.797 107.861 305.922 107.271 306.165C106.68 306.409 106.143 306.766 105.69 307.218C105.237 307.669 104.878 308.205 104.632 308.795C104.387 309.385 104.26 310.017 104.258 310.656L104.233 325.297C104.232 325.936 104.357 326.569 104.6 327.16C104.844 327.751 105.201 328.288 105.652 328.741C106.103 329.194 106.639 329.553 107.229 329.799C107.819 330.044 108.452 330.171 109.091 330.172L109.541 330.173C110.18 330.174 110.813 330.05 111.404 329.806C111.995 329.562 112.532 329.205 112.985 328.754C113.437 328.303 113.797 327.767 114.042 327.177C114.288 326.587 114.415 325.954 114.416 325.315L114.442 310.674ZM132.822 310.645C132.822 309.357 132.31 308.122 131.4 307.211C130.489 306.3 129.254 305.788 127.966 305.788H127.516C126.228 305.788 124.993 306.3 124.082 307.211C123.171 308.122 122.659 309.357 122.659 310.645V325.327C122.659 326.615 123.171 327.85 124.082 328.761C124.993 329.671 126.228 330.183 127.516 330.183H127.966C129.254 330.183 130.489 329.671 131.4 328.761C132.31 327.85 132.822 326.615 132.822 325.327V310.645ZM353.765 312.322C353.162 309.029 353.162 305.931 348.817 305.788C344.768 305.666 343.49 308.794 343.357 312.25C343.349 312.415 343.279 312.571 343.161 312.686C343.043 312.8 342.886 312.863 342.723 312.863C280.519 312.85 218.316 312.836 156.113 312.822C148.434 312.822 148.455 323.108 156.123 323.108C218.374 323.087 280.639 323.074 342.917 323.067C343.319 323.067 343.503 323.272 343.469 323.68C343.111 328.2 347.038 332.167 351.158 329.386C352.712 328.336 353.632 326.461 353.918 323.762C353.966 323.292 354.229 323.057 354.706 323.057C361.74 323.084 368.985 323.118 376.442 323.159C379.816 323.173 381.721 321.735 382.157 318.845C382.883 314.049 378.998 312.853 374.929 312.853C368.092 312.846 361.256 312.85 354.419 312.863C354.051 312.863 353.833 312.683 353.765 312.322Z" fill="url(#paint7_linear_304_290)"/>
<path d="M109.586 305.799L109.136 305.799C106.448 305.794 104.266 307.969 104.261 310.657L104.235 325.298C104.231 327.985 106.406 330.168 109.094 330.173L109.544 330.174C112.231 330.178 114.414 328.003 114.419 325.315L114.444 310.674C114.449 307.987 112.274 305.804 109.586 305.799Z" fill="#222224"/>
<path d="M127.966 305.789H127.517C124.834 305.789 122.66 307.963 122.66 310.646V325.327C122.66 328.009 124.834 330.184 127.517 330.184H127.966C130.649 330.184 132.823 328.009 132.823 325.327V310.646C132.823 307.963 130.649 305.789 127.966 305.789Z" fill="#222224"/>
<path d="M333.854 461.065H147.147C144.257 461.065 141.914 463.408 141.914 466.298V466.373C141.914 469.263 144.257 471.606 147.147 471.606H333.854C336.744 471.606 339.086 469.263 339.086 466.373V466.298C339.086 463.408 336.744 461.065 333.854 461.065Z" fill="url(#paint8_linear_304_290)"/>
<path d="M354.424 312.864C361.26 312.85 368.097 312.847 374.933 312.854C379.002 312.854 382.888 314.05 382.162 318.845C381.726 321.735 379.82 323.173 376.446 323.159C368.99 323.119 361.744 323.084 354.71 323.057C354.233 323.057 353.97 323.292 353.923 323.763C353.636 326.462 352.716 328.336 351.162 329.386C347.042 332.167 343.116 328.2 343.474 323.681C343.508 323.272 343.324 323.067 342.922 323.067C280.643 323.074 218.378 323.088 156.127 323.108C148.459 323.108 148.439 312.823 156.117 312.823C218.32 312.836 280.524 312.85 342.727 312.864C342.89 312.864 343.047 312.8 343.165 312.686C343.283 312.572 343.353 312.416 343.361 312.25C343.494 308.795 344.772 305.666 348.821 305.789C353.166 305.932 353.166 309.03 353.769 312.322C353.838 312.683 354.056 312.864 354.424 312.864Z" fill="#222224"/>
<defs>
<linearGradient id="paint0_linear_304_290" x1="240.499" y1="397.511" x2="240.499" y2="451.67" gradientUnits="userSpaceOnUse">
<stop stop-color="#FFDB6E"/>
<stop offset="1" stop-color="#FFBC5E"/>
</linearGradient>
<linearGradient id="paint1_linear_304_290" x1="240.503" y1="397.511" x2="240.503" y2="451.67" gradientUnits="userSpaceOnUse">
<stop stop-color="#FFDB6E"/>
<stop offset="1" stop-color="#FFBC5E"/>
</linearGradient>
<linearGradient id="paint2_linear_304_290" x1="240.5" y1="461.064" x2="240.5" y2="471.605" gradientUnits="userSpaceOnUse">
<stop stop-color="#FFDB6E"/>
<stop offset="1" stop-color="#FFBC5E"/>
</linearGradient>
<linearGradient id="paint3_linear_304_290" x1="240.499" y1="58.4619" x2="240.499" y2="388.116" gradientUnits="userSpaceOnUse">
<stop stop-color="#FFDB6E"/>
<stop offset="1" stop-color="#FFBC5E"/>
</linearGradient>
<linearGradient id="paint4_linear_304_290" x1="240" y1="71" x2="240" y2="378" gradientUnits="userSpaceOnUse">
<stop stop-color="#FFDB6E"/>
<stop offset="1" stop-color="#FFBC5E"/>
</linearGradient>
<linearGradient id="paint5_linear_304_290" x1="182.9" y1="147.382" x2="290.512" y2="257.811" gradientUnits="userSpaceOnUse">
<stop stop-color="#FFDB6E"/>
<stop offset="1" stop-color="#FFBC5E"/>
</linearGradient>
<linearGradient id="paint6_linear_304_290" x1="225.15" y1="169.919" x2="259.518" y2="211.612" gradientUnits="userSpaceOnUse">
<stop stop-color="#FFDB6E"/>
<stop offset="1" stop-color="#FFBC5E"/>
</linearGradient>
<linearGradient id="paint7_linear_304_290" x1="241.223" y1="295.309" x2="241.223" y2="340.56" gradientUnits="userSpaceOnUse">
<stop stop-color="#FFDB6E"/>
<stop offset="1" stop-color="#FFBC5E"/>
</linearGradient>
<linearGradient id="paint8_linear_304_290" x1="240.5" y1="461.065" x2="240.5" y2="471.606" gradientUnits="userSpaceOnUse">
<stop stop-color="#FFDB6E"/>
<stop offset="1" stop-color="#FFBC5E"/>
</linearGradient>
</defs>
</svg>
